<svg xmlns="http://www.w3.org/2000/svg" viewBox="0 0 640 420">
<defs>
  <linearGradient id="bgSMM" x1="0%" y1="0%" x2="100%" y2="100%">
    <stop offset="0%" style="stop-color:#1A1714"/>
    <stop offset="100%" style="stop-color:#251D15"/>
  </linearGradient>
  <radialGradient id="glowSMM" cx="50%" cy="50%" r="45%">
    <stop offset="0%" style="stop-color:#B8864E;stop-opacity:0.15"/>
    <stop offset="100%" style="stop-color:#B8864E;stop-opacity:0"/>
  </radialGradient>
</defs>
<rect width="640" height="420" fill="url(#bgSMM)"/>
<ellipse cx="320" cy="210" rx="160" ry="130" fill="url(#glowSMM)"/>
<!-- Phone frame -->
<rect x="210" y="28" width="220" height="360" rx="28" fill="rgba(255,255,255,0.05)" stroke="rgba(255,255,255,0.14)" stroke-width="1.5"/>
<rect x="222" y="44" width="196" height="332" rx="18" fill="rgba(20,16,12,0.85)"/>
<rect x="277" y="32" width="86" height="12" rx="6" fill="rgba(0,0,0,0.6)"/>
<!-- Profile -->
<circle cx="320" cy="82" r="26" fill="rgba(184,134,78,0.25)" stroke="rgba(184,134,78,0.5)" stroke-width="1.5"/>
<text x="320" y="89" font-size="20" text-anchor="middle" fill="rgba(212,167,106,0.8)">🍽</text>
<text x="320" y="116" font-family="monospace" font-size="11" text-anchor="middle" fill="rgba(247,244,239,0.75)" letter-spacing="0.5">craft_kitchen</text>
<!-- Stats row -->
<text x="254" y="143" font-family="Georgia,serif" font-size="16" fill="rgba(212,167,106,0.9)" text-anchor="middle">45K</text>
<text x="254" y="156" font-family="monospace" font-size="9" fill="rgba(247,244,239,0.4)" text-anchor="middle" letter-spacing="0.5">підписники</text>
<text x="320" y="143" font-family="Georgia,serif" font-size="16" fill="rgba(212,167,106,0.9)" text-anchor="middle">280</text>
<text x="320" y="156" font-family="monospace" font-size="9" fill="rgba(247,244,239,0.4)" text-anchor="middle" letter-spacing="0.5">публікації</text>
<text x="386" y="143" font-family="Georgia,serif" font-size="16" fill="rgba(212,167,106,0.9)" text-anchor="middle">8.4%</text>
<text x="386" y="156" font-family="monospace" font-size="9" fill="rgba(247,244,239,0.4)" text-anchor="middle" letter-spacing="0.5">охоплення</text>
<!-- Posts grid -->
<rect x="228" y="172" width="58" height="58" rx="5" fill="rgba(184,134,78,0.28)"/>
<rect x="291" y="172" width="58" height="58" rx="5" fill="rgba(184,134,78,0.22)"/>
<rect x="354" y="172" width="60" height="58" rx="5" fill="rgba(184,134,78,0.32)"/>
<rect x="228" y="235" width="58" height="58" rx="5" fill="rgba(184,134,78,0.20)"/>
<rect x="291" y="235" width="58" height="58" rx="5" fill="rgba(184,134,78,0.35)"/>
<rect x="354" y="235" width="60" height="58" rx="5" fill="rgba(184,134,78,0.18)"/>
<!-- Likes bubbles -->
<rect x="50" y="105" width="140" height="64" rx="12" fill="rgba(184,134,78,0.12)" stroke="rgba(184,134,78,0.38)" stroke-width="1"/>
<text x="66" y="127" font-family="monospace" font-size="10" fill="rgba(212,167,106,0.7)" letter-spacing="1">ПІДПИСНИКИ</text>
<text x="66" y="153" font-family="Georgia,serif" font-size="24" fill="#D4A76A">45 000</text>
<rect x="50" y="185" width="140" height="52" rx="12" fill="rgba(184,134,78,0.08)" stroke="rgba(184,134,78,0.25)" stroke-width="1"/>
<text x="66" y="207" font-family="monospace" font-size="10" fill="rgba(212,167,106,0.6)" letter-spacing="1">ЗА ВСЬОГО</text>
<text x="66" y="228" font-family="Georgia,serif" font-size="20" fill="#D4A76A">90 днів</text>
<!-- Hearts -->
<text x="450" y="160" font-size="24" fill="rgba(184,134,78,0.55)">♥</text>
<text x="490" y="200" font-size="18" fill="rgba(184,134,78,0.38)">♥</text>
<text x="460" y="235" font-size="13" fill="rgba(184,134,78,0.25)">♥</text>
<text x="510" y="155" font-size="11" fill="rgba(184,134,78,0.22)">♥</text>
<!-- Label -->
<text x="80" y="370" font-family="Georgia,serif" font-size="24" fill="rgba(247,244,239,0.92)">Ресторан «Craft Kitchen»</text>
<text x="80" y="395" font-family="monospace" font-size="11" fill="rgba(184,134,78,0.85)" letter-spacing="1.5">SMM · 0→45K ПІДПИСНИКІВ · 90 ДНІВ</text>
</svg>
